<svg width="1600" height="900" viewBox="0 0 1600 900" fill="none" xmlns="http://www.w3.org/2000/svg">
  <defs>
    <linearGradient id="bg" x1="0" y1="0" x2="1600" y2="900" gradientUnits="userSpaceOnUse">
      <stop stop-color="#FFF2E8"/>
      <stop offset="1" stop-color="#FFE4CC"/>
    </linearGradient>
  </defs>
  <rect width="1600" height="900" fill="url(#bg)"/>
  <path d="M0 760H1600" stroke="#8E6A4C" stroke-width="8"/>
  <g fill="#356F4D" opacity="0.92">
    <path d="M240 760L320 600L400 760H240Z"/>
    <path d="M410 760L500 560L590 760H410Z"/>
    <path d="M1030 760L1120 560L1210 760H1030Z"/>
    <path d="M1190 760L1280 610L1370 760H1190Z"/>
  </g>
  <circle cx="800" cy="510" r="145" fill="#F6782E" opacity="0.24"/>
  <path d="M800 360C865 460 905 520 800 650C695 520 735 460 800 360Z" fill="#F15A24"/>
  <path d="M800 455C835 510 855 545 800 615C745 545 765 510 800 455Z" fill="#FFD4A8"/>
  <rect x="700" y="685" width="200" height="75" rx="22" fill="#2C5D4A"/>
  <circle cx="800" cy="722" r="14" fill="#8EE2C5"/>
</svg>
